<svg width="27" height="27" viewBox="0 0 27 27" fill="none" xmlns="http://www.w3.org/2000/svg">
<rect width="27" height="27" rx="3" fill="white"/>
<path d="M18 19C18 20.105 16.88 21 15.5 21C14.12 21 13 20.105 13 19C13 17.895 14.12 17 15.5 17C16.88 17 18 17.895 18 19Z" fill="black"/>
<path fill-rule="evenodd" clip-rule="evenodd" d="M18 9V19H17V9H18Z" fill="black"/>
<path d="M17 8.81999C17.0001 8.5889 17.0803 8.36499 17.2269 8.18633C17.3735 8.00767 17.5774 7.88529 17.804 7.83999L20.804 7.23999C20.949 7.21101 21.0987 7.21455 21.2422 7.25036C21.3856 7.28617 21.5194 7.35337 21.6338 7.4471C21.7482 7.54083 21.8404 7.65877 21.9037 7.79242C21.967 7.92607 21.9999 8.0721 22 8.21999V9.99999L17 11V8.81999Z" fill="black"/>
<path fill-rule="evenodd" clip-rule="evenodd" d="M6 17.5C6 17.3674 6.05268 17.2402 6.14645 17.1464C6.24021 17.0527 6.36739 17 6.5 17H10C10.1326 17 10.2598 17.0527 10.3536 17.1464C10.4473 17.2402 10.5 17.3674 10.5 17.5C10.5 17.6326 10.4473 17.7598 10.3536 17.8536C10.2598 17.9473 10.1326 18 10 18H6.5C6.36739 18 6.24021 17.9473 6.14645 17.8536C6.05268 17.7598 6 17.6326 6 17.5ZM6 13.5C6 13.3674 6.05268 13.2402 6.14645 13.1464C6.24021 13.0527 6.36739 13 6.5 13H14C14.1326 13 14.2598 13.0527 14.3536 13.1464C14.4473 13.2402 14.5 13.3674 14.5 13.5C14.5 13.6326 14.4473 13.7598 14.3536 13.8536C14.2598 13.9473 14.1326 14 14 14H6.5C6.36739 14 6.24021 13.9473 6.14645 13.8536C6.05268 13.7598 6 13.6326 6 13.5ZM6 9.5C6 9.36739 6.05268 9.24021 6.14645 9.14645C6.24021 9.05268 6.36739 9 6.5 9H14C14.1326 9 14.2598 9.05268 14.3536 9.14645C14.4473 9.24021 14.5 9.36739 14.5 9.5C14.5 9.63261 14.4473 9.75979 14.3536 9.85355C14.2598 9.94732 14.1326 10 14 10H6.5C6.36739 10 6.24021 9.94732 6.14645 9.85355C6.05268 9.75979 6 9.63261 6 9.5Z" fill="black"/>
</svg>
