<svg width="46" height="46" viewBox="0 0 46 46" fill="none" xmlns="http://www.w3.org/2000/svg">
<path d="M38.4517 35.8369C40.5161 33.353 41.9519 30.4085 42.6377 27.2524C43.3235 24.0963 43.239 20.8214 42.3914 17.7049C41.5438 14.5883 39.9581 11.7217 37.7684 9.34761C35.5786 6.9735 32.8493 5.16172 29.8113 4.06552C26.7732 2.96933 23.5158 2.62097 20.3147 3.04992C17.1136 3.47887 14.0628 4.67251 11.4205 6.52986C8.77826 8.38721 6.6222 10.8536 5.13474 13.7205C3.64728 16.5873 2.87218 19.7703 2.87501 23C2.87609 27.6952 4.53064 32.2399 7.54832 35.8369L7.51957 35.8613C7.62019 35.9821 7.7352 36.0856 7.8387 36.2049C7.96807 36.353 8.10751 36.4924 8.24119 36.6361C8.64369 37.0731 9.05769 37.4929 9.49182 37.8868C9.62407 38.0075 9.76063 38.1196 9.89432 38.2346C10.3543 38.6314 10.8273 39.008 11.3174 39.3588C11.3807 39.4019 11.4382 39.4579 11.5014 39.5025V39.4853C14.8682 41.8545 18.8846 43.126 23.0014 43.126C27.1183 43.126 31.1347 41.8545 34.5014 39.4853V39.5025C34.5647 39.4579 34.6208 39.4019 34.6854 39.3588C35.1742 39.0066 35.6486 38.6314 36.1086 38.2346C36.2423 38.1196 36.3788 38.0061 36.5111 37.8868C36.9452 37.4915 37.3592 37.0731 37.7617 36.6361C37.8954 36.4924 38.0334 36.353 38.1642 36.2049C38.2663 36.0856 38.3827 35.9821 38.4833 35.8599L38.4517 35.8369ZM23 11.5C24.2794 11.5 25.5301 11.8794 26.5939 12.5902C27.6576 13.301 28.4867 14.3113 28.9764 15.4933C29.466 16.6753 29.5941 17.9759 29.3445 19.2308C29.0949 20.4856 28.4788 21.6382 27.5741 22.5429C26.6694 23.4475 25.5168 24.0636 24.262 24.3132C23.0072 24.5628 21.7065 24.4347 20.5245 23.9451C19.3425 23.4555 18.3322 22.6264 17.6214 21.5626C16.9106 20.4988 16.5313 19.2482 16.5313 17.9688C16.5313 16.2531 17.2128 14.6078 18.4259 13.3947C19.639 12.1815 21.2844 11.5 23 11.5ZM11.5101 35.8369C11.535 33.9494 12.3021 32.1476 13.6453 30.8214C14.9885 29.4951 16.7999 28.751 18.6875 28.75H27.3125C29.2002 28.751 31.0115 29.4951 32.3547 30.8214C33.698 32.1476 34.465 33.9494 34.4899 35.8369C31.3373 38.6779 27.2439 40.2501 23 40.2501C18.7561 40.2501 14.6627 38.6779 11.5101 35.8369Z" fill="#F5F5F5"/>
</svg>
