<svg width="30" height="30" viewBox="0 0 30 30" fill="none" xmlns="http://www.w3.org/2000/svg">
<rect width="30" height="30" rx="5" fill="#181818"/>
<path d="M24.2286 22.6541C25.4604 21.1732 26.3172 19.4177 26.7264 17.536C27.1356 15.6543 27.0852 13.7018 26.5794 11.8436C26.0737 9.98551 25.1275 8.27643 23.8209 6.86096C22.5142 5.4455 20.8857 4.36529 19.0729 3.71173C17.2601 3.05817 15.3164 2.85048 13.4063 3.10622C11.4961 3.36196 9.67576 4.07362 8.09911 5.18099C6.52247 6.28836 5.23595 7.75887 4.34839 9.46811C3.46082 11.1773 2.99832 13.075 3 15.0007C3.00065 17.7999 3.98792 20.5096 5.78857 22.6541L5.77141 22.6687C5.83146 22.7407 5.90008 22.8024 5.96183 22.8735C6.03903 22.9618 6.12223 23.0449 6.20201 23.1307C6.44218 23.3912 6.68921 23.6415 6.94825 23.8763C7.02717 23.9483 7.10865 24.0151 7.18842 24.0837C7.46291 24.3202 7.74511 24.5448 8.0376 24.7539C8.07534 24.7796 8.10965 24.813 8.1474 24.8396V24.8293C10.1563 26.2419 12.5529 27 15.0094 27C17.466 27 19.8625 26.2419 21.8715 24.8293V24.8396C21.9092 24.813 21.9427 24.7796 21.9813 24.7539C22.2729 24.5439 22.556 24.3202 22.8305 24.0837C22.9102 24.0151 22.9917 23.9474 23.0706 23.8763C23.3297 23.6406 23.5767 23.3912 23.8169 23.1307C23.8966 23.0449 23.979 22.9618 24.057 22.8735C24.1179 22.8024 24.1874 22.7407 24.2475 22.6678L24.2286 22.6541ZM15.0086 8.14424C15.772 8.14424 16.5183 8.37044 17.153 8.79422C17.7878 9.218 18.2825 9.82034 18.5747 10.5251C18.8668 11.2298 18.9433 12.0053 18.7943 12.7534C18.6454 13.5015 18.2778 14.1887 17.7379 14.7281C17.1981 15.2675 16.5104 15.6348 15.7616 15.7836C15.0129 15.9324 14.2368 15.856 13.5315 15.5641C12.8262 15.2722 12.2233 14.7779 11.7992 14.1437C11.3751 13.5094 11.1487 12.7638 11.1487 12.001C11.1487 10.9781 11.5553 9.99713 12.2792 9.27386C13.0031 8.55058 13.9849 8.14424 15.0086 8.14424V8.14424ZM8.15254 22.6541C8.16742 21.5288 8.62512 20.4546 9.42662 19.6638C10.2281 18.8731 11.309 18.4294 12.4353 18.4289H17.5818C18.7082 18.4294 19.7891 18.8731 20.5905 19.6638C21.392 20.4546 21.8497 21.5288 21.8646 22.6541C19.9834 24.3479 17.5409 25.2853 15.0086 25.2853C12.4763 25.2853 10.0337 24.3479 8.15254 22.6541V22.6541Z" fill="#282828"/>
</svg>
