<svg width="200" height="200" viewBox="0 0 200 200" fill="none" xmlns="http://www.w3.org/2000/svg">
<path d="M167.181 155.813C176.157 145.013 182.4 132.211 185.381 118.489C188.363 104.766 187.996 90.5279 184.311 76.9776C180.625 63.4273 173.731 50.9639 164.21 40.6417C154.69 30.3195 142.823 22.4422 129.614 17.6762C116.405 12.9101 102.243 11.3955 88.3248 13.2605C74.4067 15.1255 61.1426 20.3152 49.6545 28.3907C38.1664 36.4661 28.7922 47.1897 22.325 59.6542C15.8577 72.1188 12.4877 85.9576 12.5 100C12.5048 120.414 19.6984 140.174 32.8188 155.813L32.6938 155.919C33.1313 156.444 33.6313 156.894 34.0813 157.413C34.6438 158.056 35.25 158.663 35.8313 159.288C37.5813 161.188 39.3813 163.013 41.2688 164.725C41.8438 165.25 42.4375 165.738 43.0188 166.238C45.0188 167.963 47.075 169.6 49.2063 171.125C49.4813 171.313 49.7313 171.556 50.0063 171.75V171.675C64.6444 181.976 82.1069 187.505 100.006 187.505C117.906 187.505 135.368 181.976 150.006 171.675V171.75C150.281 171.556 150.525 171.313 150.806 171.125C152.931 169.594 154.994 167.963 156.994 166.238C157.575 165.738 158.169 165.244 158.744 164.725C160.631 163.006 162.431 161.188 164.181 159.288C164.763 158.663 165.363 158.056 165.931 157.413C166.375 156.894 166.881 156.444 167.319 155.913L167.181 155.813ZM100 50C105.563 50 111 51.6495 115.625 54.7399C120.251 57.8303 123.855 62.2229 125.984 67.362C128.113 72.5012 128.67 78.1562 127.585 83.6119C126.499 89.0676 123.821 94.079 119.887 98.0124C115.954 101.946 110.943 104.624 105.487 105.71C100.031 106.795 94.3762 106.238 89.2371 104.109C84.0979 101.98 79.7054 98.3756 76.6149 93.7504C73.5245 89.1253 71.875 83.6876 71.875 78.125C71.875 70.6658 74.8382 63.5121 80.1127 58.2376C85.3871 52.9632 92.5408 50 100 50V50ZM50.0438 155.813C50.1522 147.606 53.4872 139.772 59.3273 134.006C65.1673 128.239 73.0429 125.004 81.25 125H118.75C126.957 125.004 134.833 128.239 140.673 134.006C146.513 139.772 149.848 147.606 149.956 155.813C136.249 168.165 118.452 175 100 175C81.5484 175 63.751 168.165 50.0438 155.813V155.813Z" fill="#F5F5F5"/>
</svg>
