<svg width="30" height="30" viewBox="0 0 30 30" fill="none" xmlns="http://www.w3.org/2000/svg">
<path d="M14.7 0C10.8013 0 7.06232 1.54875 4.30553 4.30553C1.54875 7.06232 0 10.8013 0 14.7C0 18.5987 1.54875 22.3377 4.30553 25.0945C7.06232 27.8513 10.8013 29.4 14.7 29.4C18.5987 29.4 22.3377 27.8513 25.0945 25.0945C27.8513 22.3377 29.4 18.5987 29.4 14.7C29.4 10.8013 27.8513 7.06232 25.0945 4.30553C22.3377 1.54875 18.5987 0 14.7 0ZM23.0807 20.0567L20.055 23.0825L14.7 17.7257L9.34325 23.0807L6.3175 20.055L11.676 14.7L6.31925 9.34325L9.345 6.31925L14.7 11.6742L20.0567 6.3175L23.0825 9.34325L17.724 14.7L23.0807 20.0567Z" fill="white"/>
</svg>
