<svg width="40" height="40" viewBox="0 0 40 40" fill="none" xmlns="http://www.w3.org/2000/svg">
<rect width="40" height="40" rx="10" fill="#F5F5F5"/>
<path fill-rule="evenodd" clip-rule="evenodd" d="M18.4877 10.2466C16.3023 10.2466 14.2063 11.1148 12.6609 12.6602C11.1156 14.2056 10.2474 16.3017 10.2474 18.4872C10.2474 20.6728 11.1156 22.7688 12.6609 24.3143C14.2063 25.8597 16.3023 26.7279 18.4877 26.7279C20.6732 26.7279 22.7692 25.8597 24.3146 24.3143C25.8599 22.7688 26.7281 20.6728 26.7281 18.4872C26.7281 16.3017 25.8599 14.2056 24.3146 12.6602C22.7692 11.1148 20.6732 10.2466 18.4877 10.2466ZM8 18.4872C8.00014 16.8101 8.40245 15.1575 9.17317 13.668C9.9439 12.1785 11.0606 10.8956 12.4295 9.92683C13.7984 8.95805 15.3797 8.3317 17.0407 8.10031C18.7017 7.86892 20.394 8.03923 21.9756 8.59697C23.5571 9.15471 24.9819 10.0836 26.1304 11.3057C27.2788 12.5279 28.1175 14.0076 28.5759 15.6208C29.0344 17.234 29.0994 18.9337 28.7653 20.5772C28.4313 22.2206 27.708 23.7601 26.6562 25.0663L31.6424 30.0541C31.7528 30.157 31.8413 30.2811 31.9027 30.4189C31.9641 30.5568 31.9972 30.7056 31.9998 30.8565C32.0025 31.0073 31.9747 31.1572 31.9182 31.2971C31.8617 31.4371 31.7776 31.5642 31.6709 31.6709C31.5642 31.7776 31.4371 31.8617 31.2972 31.9182C31.1572 31.9747 31.0074 32.0025 30.8565 31.9998C30.7056 31.9972 30.5568 31.9641 30.419 31.9027C30.2811 31.8413 30.1571 31.7528 30.0542 31.6423L25.0665 26.656C23.5257 27.8972 21.6651 28.6771 19.6998 28.9058C17.7345 29.1345 15.7446 28.8025 13.96 27.9483C12.1753 27.0941 10.6686 25.7524 9.61402 24.0783C8.55942 22.4042 7.99987 20.4659 8 18.4872Z" fill="#051726"/>
</svg>
