<svg width="27" height="27" viewBox="0 0 27 27" fill="none" xmlns="http://www.w3.org/2000/svg">
<rect width="27" height="27" rx="3" fill="white"/>
<path d="M22.4863 12.8633L14.9395 5.3203L14.4336 4.81444C14.3184 4.69994 14.1625 4.63568 14 4.63568C13.8376 4.63568 13.6817 4.69994 13.5664 4.81444L5.51369 12.8633C5.39559 12.9809 5.30225 13.121 5.23918 13.2753C5.17612 13.4296 5.14461 13.595 5.1465 13.7617C5.15432 14.4492 5.72658 14.998 6.41408 14.998H7.24416V21.3594H20.7559V14.998H21.6035C21.9375 14.998 22.252 14.8672 22.4883 14.6308C22.6047 14.5149 22.6969 14.3769 22.7596 14.2251C22.8223 14.0732 22.8542 13.9104 22.8535 13.7461C22.8535 13.4141 22.7227 13.0996 22.4863 12.8633ZM15.0938 19.9531H12.9063V15.9687H15.0938V19.9531ZM19.3496 13.5918V19.9531H16.3438V15.5C16.3438 15.0683 15.9942 14.7187 15.5625 14.7187H12.4375C12.0059 14.7187 11.6563 15.0683 11.6563 15.5V19.9531H8.65041V13.5918H6.77541L14.002 6.37108L14.4531 6.82225L21.2266 13.5918H19.3496Z" fill="black"/>
</svg>
