<svg width="167" height="40" viewBox="0 0 167 40" fill="none" xmlns="http://www.w3.org/2000/svg">
<path d="M17.84 32.576C16.496 32.576 15.312 32.3413 14.288 31.872C13.264 31.4027 12.4747 30.752 11.92 29.92C11.3653 29.0667 11.088 28.0853 11.088 26.976C11.088 26.0373 11.28 25.184 11.664 24.416C12.0693 23.648 12.6027 23.04 13.264 22.592C13.9467 22.144 14.6933 21.92 15.504 21.92C16.2507 21.92 16.88 22.112 17.392 22.496C17.904 22.8587 18.224 23.3707 18.352 24.032C17.2427 24.032 16.3573 24.3307 15.696 24.928C15.0347 25.504 14.704 26.2933 14.704 27.296C14.704 28.2133 14.9813 28.9493 15.536 29.504C16.0907 30.0587 16.8267 30.336 17.744 30.336C18.8747 30.336 19.8027 29.9627 20.528 29.216C21.2747 28.448 21.648 27.488 21.648 26.336C21.648 25.3333 21.3707 24.384 20.816 23.488C20.2613 22.592 19.4293 21.504 18.32 20.224C17.168 18.9013 16.2933 17.7707 15.696 16.832C15.12 15.872 14.832 14.8267 14.832 13.696C14.832 12.5867 15.1413 11.5947 15.76 10.72C16.3787 9.824 17.232 9.12 18.32 8.608C19.408 8.096 20.6347 7.84 22 7.84C23.728 7.84 25.104 8.24533 26.128 9.056C27.1733 9.86667 27.696 10.9547 27.696 12.32C27.696 13.216 27.472 13.9413 27.024 14.496C26.576 15.0507 25.9893 15.328 25.264 15.328C24.4533 15.328 23.8027 14.9973 23.312 14.336C23.7173 14.0373 24.0373 13.6427 24.272 13.152C24.5067 12.6613 24.624 12.1493 24.624 11.616C24.624 10.9333 24.4213 10.3893 24.016 9.984C23.6107 9.57867 23.056 9.376 22.352 9.376C21.4987 9.376 20.7947 9.68533 20.24 10.304C19.7067 10.9013 19.44 11.6693 19.44 12.608C19.44 13.4613 19.6853 14.2613 20.176 15.008C20.6667 15.7333 21.4347 16.672 22.48 17.824C23.3333 18.7413 24.016 19.5307 24.528 20.192C25.0613 20.8533 25.5093 21.6213 25.872 22.496C26.256 23.3493 26.448 24.2773 26.448 25.28C26.448 26.6453 26.064 27.8827 25.296 28.992C24.5493 30.1013 23.5147 30.976 22.192 31.616C20.8907 32.256 19.44 32.576 17.84 32.576ZM30.682 14.816H35.29L34.778 17.216C35.8447 16.2987 37.0927 15.84 38.522 15.84C39.7167 15.84 40.666 16.2347 41.37 17.024C42.074 17.8133 42.426 19.104 42.426 20.896C42.426 22.5813 42.1807 24.288 41.69 26.016C41.1993 27.7227 40.3673 29.184 39.194 30.4C38.0207 31.5947 36.474 32.192 34.554 32.192C33.1887 32.192 32.282 31.808 31.834 31.04L30.17 38.848L25.338 40L30.682 14.816ZM33.562 29.408C34.586 29.408 35.4287 28.928 36.09 27.968C36.7727 27.008 37.2633 25.8667 37.562 24.544C37.882 23.2 38.042 21.952 38.042 20.8C38.042 19.0293 37.5087 18.144 36.442 18.144C36.058 18.144 35.6633 18.2827 35.258 18.56C34.874 18.8373 34.5327 19.2213 34.234 19.712L32.346 28.672C32.5167 29.1627 32.922 29.408 33.562 29.408ZM47.8908 32.128C46.3121 32.128 45.0641 31.7227 44.1468 30.912C43.2294 30.1013 42.7707 28.8213 42.7707 27.072C42.7707 25.6213 43.0694 24.0107 43.6668 22.24C44.2641 20.4693 45.2241 18.944 46.5468 17.664C47.8694 16.3627 49.5334 15.712 51.5388 15.712C54.2694 15.712 55.6348 17.4187 55.6348 20.832V20.864C55.6988 20.8853 55.8161 20.896 55.9868 20.896C56.6908 20.896 57.5014 20.7147 58.4188 20.352C59.3361 19.968 60.1681 19.5093 60.9148 18.976L61.2028 19.84C60.5841 20.5013 59.7734 21.0667 58.7708 21.536C57.7894 21.984 56.7121 22.304 55.5388 22.496C55.3681 24.4373 54.9308 26.1333 54.2268 27.584C53.5228 29.0347 52.6161 30.1547 51.5068 30.944C50.3974 31.7333 49.1921 32.128 47.8908 32.128ZM49.1708 29.248C49.6828 29.248 50.1948 28.96 50.7068 28.384C51.2188 27.7867 51.6668 26.9867 52.0508 25.984C52.4348 24.96 52.7121 23.8293 52.8828 22.592C52.3068 22.464 52.0188 22.016 52.0188 21.248C52.0188 20.3733 52.3494 19.7973 53.0108 19.52C52.9681 18.816 52.8614 18.336 52.6908 18.08C52.5201 17.8027 52.2214 17.664 51.7948 17.664C51.0908 17.664 50.4081 18.176 49.7468 19.2C49.0854 20.224 48.5521 21.4507 48.1468 22.88C47.7414 24.3093 47.5388 25.568 47.5388 26.656C47.5388 27.68 47.6561 28.3733 47.8908 28.736C48.1254 29.0773 48.5521 29.248 49.1708 29.248ZM60.4493 32.192C59.4253 32.192 58.5933 31.872 57.9533 31.232C57.3346 30.592 57.0252 29.632 57.0252 28.352C57.0252 27.8187 57.1106 27.1253 57.2812 26.272L59.2013 17.28H58.1453L58.4013 16H59.4573L60.4173 11.584L65.1533 10.944L64.0653 16H65.9853L65.7292 17.28H63.8093L61.7613 26.88C61.6759 27.2 61.6333 27.5413 61.6333 27.904C61.6333 28.3307 61.7293 28.64 61.9213 28.832C62.1346 29.0027 62.4759 29.088 62.9453 29.088C63.5639 29.088 64.1399 28.832 64.6733 28.32C65.2066 27.7867 65.5906 27.104 65.8253 26.272H67.1693C66.3799 28.576 65.3666 30.144 64.1293 30.976C62.8919 31.7867 61.6653 32.192 60.4493 32.192ZM71.1565 14.272C70.4525 14.272 69.8552 14.0267 69.3645 13.536C68.8738 13.0453 68.6285 12.448 68.6285 11.744C68.6285 11.04 68.8738 10.4427 69.3645 9.952C69.8552 9.44 70.4525 9.184 71.1565 9.184C71.8605 9.184 72.4578 9.44 72.9485 9.952C73.4605 10.4427 73.7165 11.04 73.7165 11.744C73.7165 12.448 73.4605 13.0453 72.9485 13.536C72.4578 14.0267 71.8605 14.272 71.1565 14.272ZM68.9805 32.192C67.9565 32.192 67.1245 31.872 66.4845 31.232C65.8658 30.592 65.5565 29.632 65.5565 28.352C65.5565 27.8187 65.6418 27.1253 65.8125 26.272L67.9885 16H72.5965L70.2925 26.88C70.2072 27.2 70.1645 27.5413 70.1645 27.904C70.1645 28.3307 70.2605 28.64 70.4525 28.832C70.6658 29.0027 71.0072 29.088 71.4765 29.088C71.8605 29.088 72.2018 29.024 72.5005 28.896C72.4152 29.9627 72.0312 30.784 71.3485 31.36C70.6872 31.9147 69.8978 32.192 68.9805 32.192ZM90.388 40C89.428 40 88.4787 39.7227 87.54 39.168C86.6227 38.6347 85.4493 37.8027 84.02 36.672C82.9533 35.8187 82.036 35.1253 81.268 34.592C80.5213 34.08 79.7 33.6427 78.804 33.28C77.9293 32.9173 77.0333 32.736 76.116 32.736C75.796 32.736 75.5507 32.7467 75.38 32.768L80.148 10.592C78.7187 11.168 77.6093 12.0533 76.82 13.248C76.052 14.4213 75.668 15.8613 75.668 17.568C75.668 18.3573 75.7427 18.912 75.892 19.232C76.0413 19.5307 76.116 19.7013 76.116 19.744C74.964 19.744 74.1 19.5093 73.524 19.04C72.9693 18.5493 72.692 17.7493 72.692 16.64C72.692 15.2747 73.2467 13.952 74.356 12.672C75.4867 11.3707 76.9267 10.3253 78.676 9.536C80.4253 8.72533 82.1747 8.32 83.924 8.32C84.2227 8.32 84.6493 8.34133 85.204 8.384L80.276 31.36C80.8733 31.5093 81.4813 31.7227 82.1 32C82.74 32.2987 83.508 32.6933 84.404 33.184C85.7907 33.9307 86.9747 34.496 87.956 34.88C88.9373 35.2853 89.9613 35.488 91.028 35.488C91.988 35.488 92.884 35.3173 93.716 34.976C93.5453 36.5333 93.1613 37.76 92.564 38.656C91.988 39.552 91.2627 40 90.388 40ZM89.969 14.272C89.265 14.272 88.6677 14.0267 88.177 13.536C87.6863 13.0453 87.441 12.448 87.441 11.744C87.441 11.04 87.6863 10.4427 88.177 9.952C88.6677 9.44 89.265 9.184 89.969 9.184C90.673 9.184 91.2703 9.44 91.761 9.952C92.273 10.4427 92.529 11.04 92.529 11.744C92.529 12.448 92.273 13.0453 91.761 13.536C91.2703 14.0267 90.673 14.272 89.969 14.272ZM87.793 32.192C86.769 32.192 85.937 31.872 85.297 31.232C84.6783 30.592 84.369 29.632 84.369 28.352C84.369 27.8187 84.4543 27.1253 84.625 26.272L86.801 16H91.409L89.105 26.88C89.0197 27.2 88.977 27.5413 88.977 27.904C88.977 28.3307 89.073 28.64 89.265 28.832C89.4783 29.0027 89.8197 29.088 90.289 29.088C90.9077 29.088 91.4837 28.832 92.017 28.32C92.5503 27.7867 92.9343 27.104 93.169 26.272H94.513C93.7237 28.576 92.7103 30.144 91.473 30.976C90.2357 31.7867 89.009 32.192 87.793 32.192ZM97.6683 32.192C96.1109 32.192 94.8949 31.7867 94.0203 30.976C93.1456 30.144 92.7082 28.8533 92.7082 27.104C92.7082 25.632 92.9962 24.0107 93.5723 22.24C94.1483 20.4693 95.0869 18.944 96.3883 17.664C97.6896 16.3627 99.3429 15.712 101.348 15.712C103.695 15.712 104.868 16.736 104.868 18.784C104.868 19.9787 104.527 21.0773 103.844 22.08C103.162 23.0827 102.255 23.8933 101.124 24.512C99.9936 25.1093 98.7883 25.4507 97.5083 25.536C97.4656 26.0053 97.4443 26.3253 97.4443 26.496C97.4443 28.2667 98.1056 29.152 99.4283 29.152C100.026 29.152 100.666 28.992 101.348 28.672C102.031 28.352 102.65 27.9467 103.204 27.456C102.628 30.6133 100.783 32.192 97.6683 32.192ZM97.7323 24C98.5429 23.9787 99.3003 23.712 100.004 23.2C100.73 22.688 101.306 22.0373 101.732 21.248C102.18 20.4373 102.404 19.5947 102.404 18.72C102.404 17.8453 102.138 17.408 101.604 17.408C100.858 17.408 100.111 18.0907 99.3643 19.456C98.6389 20.8 98.0949 22.3147 97.7323 24Z" fill="#FAFAFA"/>
<g clip-path="url(#clip0_117_245)">
<path d="M149.607 37.0369L144.798 32.6758L143.774 31.7495L142.764 32.6758L141.745 33.6068L141.488 32.6758L140.61 29.511L139.334 24.8894L144.597 27.0266L147.072 28.0348L145.171 30.0514L146.836 32.6758L149.607 37.0369Z" fill="#FAFAFA"/>
<path d="M125.571 8.28911V31.7109L136.17 37.5L140.382 34.7425L138.298 28.5462H128.196V11.2464H143.74V24.8942L146.365 25.9604V8.28911L135.887 2.5L125.571 8.28911Z" fill="#FAFAFA"/>
<path d="M139.594 19.437L134.068 23.296V16.2212L139.594 19.437Z" fill="#FAFAFA"/>
<path d="M147.842 30.6785L157 24.8894V14.2375L147.842 8.93079V30.6785ZM151.819 21.9273V20.6634L150.006 21.9273V17.4745L151.819 18.5311V17.4745L155.3 19.5007L151.819 21.9273Z" fill="#FAFAFA"/>
<path d="M115 14.2375V24.8894L124.158 30.6785V8.93079L115 14.2375ZM116.7 19.5007L120.181 17.4745V18.5311L121.994 17.4745V21.9269L120.181 20.6629V21.9269L116.7 19.5007Z" fill="#FAFAFA"/>
</g>
<defs>
<clipPath id="clip0_117_245">
<rect width="42" height="35" fill="white" transform="translate(115 2.5)"/>
</clipPath>
</defs>
</svg>
