<svg width="195" height="45" viewBox="0 0 195 45" fill="none" xmlns="http://www.w3.org/2000/svg">
<g clip-path="url(#clip0_2_2)">
<g clip-path="url(#clip1_2_2)">
<g clip-path="url(#clip2_2_2)">
<g clip-path="url(#clip3_2_2)">
<path d="M132.36 2.95386H130.377C130.375 2.95386 130.374 2.95528 130.374 2.95704V41.9025C130.374 41.9043 130.375 41.9057 130.377 41.9057H132.36C132.362 41.9057 132.363 41.9043 132.363 41.9025V2.95704C132.363 2.95528 132.362 2.95386 132.36 2.95386Z" fill="white"/>
<g clip-path="url(#clip4_2_2)">
<g clip-path="url(#clip5_2_2)">
<g clip-path="url(#clip6_2_2)">
<g clip-path="url(#clip7_2_2)">
<path d="M14.634 11.7679L13.4729 14.4379C12.6592 14.1379 11.8514 13.8979 11.0496 13.7179C10.2438 13.5379 9.47378 13.4479 8.73944 13.4479C7.48909 13.4479 6.49277 13.7079 5.75049 14.2279C5.00425 14.7479 4.63112 15.408 4.63112 16.208C4.63112 16.888 4.89906 17.432 5.43492 17.84C5.97079 18.252 6.63567 18.622 7.42954 18.95C8.22342 19.282 9.08677 19.612 10.0196 19.94C10.9524 20.272 11.8157 20.698 12.6096 21.218C13.4035 21.7381 14.0684 22.3921 14.6042 23.1801C15.1401 23.9721 15.408 24.9881 15.408 26.2281C15.408 27.1881 15.2354 28.0522 14.89 28.8202C14.5407 29.5922 14.0247 30.2582 13.342 30.8182C12.6553 31.3782 11.8018 31.8082 10.7817 32.1082C9.75759 32.4082 8.56082 32.5582 7.19138 32.5582C6.31811 32.5582 5.52821 32.4982 4.82165 32.3782C4.11907 32.2582 3.48595 32.1022 2.9223 31.9102C2.35468 31.7222 1.8585 31.5182 1.43378 31.2982C1.00508 31.0782 0.641882 30.8782 0.344177 30.6982L1.77316 27.8481C2.56704 28.3082 3.45023 28.6782 4.42273 28.9582C5.39523 29.2382 6.27842 29.3782 7.0723 29.3782C7.46924 29.3782 7.96144 29.3282 8.54891 29.2282C9.13241 29.1282 9.6921 28.9522 10.228 28.7002C10.7638 28.4522 11.2263 28.1182 11.6153 27.6981C12.0003 27.2781 12.1928 26.7481 12.1928 26.1081C12.1928 25.5281 12.04 25.0321 11.7344 24.6201C11.4247 24.2121 11.0179 23.8521 10.5138 23.5401C10.0057 23.2321 9.43012 22.9521 8.78708 22.7001C8.14007 22.4521 7.47916 22.1941 6.80437 21.9261C6.12957 21.6541 5.46866 21.368 4.82165 21.068C4.17861 20.768 3.60503 20.402 3.10092 19.97C2.59284 19.542 2.18598 19.042 1.88033 18.47C1.57072 17.902 1.41591 17.218 1.41591 16.418C1.41591 15.678 1.56477 14.948 1.86247 14.2279C2.16017 13.5079 2.60673 12.8679 3.20214 12.3079C3.79755 11.7479 4.53784 11.2979 5.42302 10.9579C6.30422 10.6179 7.33031 10.4479 8.50128 10.4479C9.21577 10.4479 9.91637 10.5079 10.6031 10.6279C11.2858 10.7479 11.905 10.8819 12.4608 11.0299C13.0165 11.1819 13.4888 11.3279 13.8778 11.4679C14.2629 11.6079 14.5149 11.7079 14.634 11.7679ZM22.3743 13.6279V21.4581H25.3216C26.1155 21.4581 26.7803 21.318 27.3162 21.038C27.8521 20.758 28.2728 20.418 28.5785 20.018C28.8881 19.618 29.1064 19.188 29.2334 18.728C29.3644 18.268 29.4299 17.858 29.4299 17.498C29.4299 17.118 29.3644 16.702 29.2334 16.25C29.1064 15.802 28.8841 15.382 28.5666 14.99C28.249 14.6019 27.8263 14.2779 27.2983 14.0179C26.7744 13.7579 26.1254 13.6279 25.3514 13.6279H22.3743ZM22.3743 32.3182H19.0996V10.5679H24.9941C26.1254 10.5679 27.1614 10.7179 28.1021 11.0179C29.0469 11.3179 29.8606 11.7639 30.5433 12.3559C31.23 12.9439 31.7619 13.6619 32.139 14.5099C32.5161 15.362 32.7047 16.338 32.7047 17.438C32.7047 18.298 32.5757 19.152 32.3176 20C32.0596 20.852 31.6428 21.6121 31.0673 22.2801C30.4917 22.9521 29.7375 23.4981 28.8047 23.9181C27.8719 24.3381 26.7406 24.5481 25.4109 24.5481H22.3743V32.3182ZM34.7529 21.4581C34.7529 19.958 35.0426 18.532 35.6222 17.18C36.1938 15.832 36.9817 14.6479 37.9859 13.6279C38.9862 12.6079 40.1532 11.8019 41.4869 11.2099C42.8127 10.6219 44.2417 10.3279 45.7739 10.3279C47.2823 10.3279 48.7053 10.6219 50.043 11.2099C51.3846 11.8019 52.5556 12.6079 53.5559 13.6279C54.5562 14.6479 55.3501 15.832 55.9375 17.18C56.525 18.532 56.8187 19.958 56.8187 21.4581C56.8187 22.9981 56.525 24.4381 55.9375 25.7781C55.3501 27.1181 54.5562 28.2922 53.5559 29.3002C52.5556 30.3122 51.3846 31.1082 50.043 31.6882C48.7053 32.2682 47.2823 32.5582 45.7739 32.5582C44.2417 32.5582 42.8127 32.2682 41.4869 31.6882C40.1532 31.1082 38.9862 30.3122 37.9859 29.3002C36.9817 28.2922 36.1938 27.1181 35.6222 25.7781C35.0426 24.4381 34.7529 22.9981 34.7529 21.4581ZM37.9978 21.4881C37.9978 22.5881 38.2023 23.6221 38.6111 24.5901C39.02 25.5621 39.5816 26.4081 40.2961 27.1281C41.0066 27.8481 41.8402 28.4182 42.7968 28.8382C43.7455 29.2582 44.7557 29.4682 45.8275 29.4682C46.9032 29.4682 47.9114 29.2582 48.8522 28.8382C49.7969 28.4182 50.6205 27.8481 51.3231 27.1281C52.0257 26.4081 52.5814 25.5621 52.9902 24.5901C53.3991 23.6221 53.6035 22.5781 53.6035 21.4581C53.6035 20.358 53.3991 19.322 52.9902 18.35C52.5814 17.382 52.0217 16.538 51.3112 15.818C50.5967 15.098 49.7671 14.5279 48.8224 14.1079C47.8816 13.6879 46.8754 13.4779 45.8037 13.4779C44.728 13.4779 43.7138 13.6879 42.7611 14.1079C41.8124 14.5279 40.9848 15.098 40.2783 15.818C39.5757 16.538 39.02 17.388 38.6111 18.368C38.2023 19.348 37.9978 20.388 37.9978 21.4881ZM58.6288 10.5679H72.6507V13.6879H67.2027V32.3182H63.9577V13.6879H58.6288V10.5679ZM76.491 32.3182V10.5679H79.736V32.3182H76.491ZM99.0273 32.3182H85.0352V10.5679H88.3099V29.1982H99.0273V32.3182ZM102.034 32.3182V10.5679H105.279V32.3182H102.034ZM125.16 32.3182H110.572V10.5679H124.743V13.5379H113.847V19.898H123.552V22.9281H113.847V29.2882H125.16V32.3182Z" fill="white"/>
</g>
</g>
</g>
</g>
<g clip-path="url(#clip8_2_2)">
<g clip-path="url(#clip9_2_2)">
<path d="M184.417 44.2659L177.908 38.6762L176.522 37.4891L175.155 38.6762L173.775 39.8696L173.427 38.6762L172.239 34.62L170.512 28.6965L177.636 31.4357L180.986 32.728L178.412 35.3126L180.666 38.6762L184.417 44.2659Z" fill="#81FFD9"/>
<path d="M151.881 7.4199V37.4396L166.228 44.8595L171.93 41.3252L169.109 33.3834H155.434V11.2102H176.476V28.7027L180.029 30.0692V7.4199L165.845 0L151.881 7.4199Z" fill="#81FFD9"/>
<path d="M170.863 21.7082L163.382 26.6542V17.5864L170.863 21.7082Z" fill="#81FFD9"/>
<path d="M182.028 36.1164L194.425 28.6965V15.0439L182.028 8.24228V36.1164ZM187.412 24.9V23.28L184.958 24.9V19.1928L187.412 20.547V19.1928L192.125 21.7898L187.412 24.9Z" fill="#81FFD9"/>
<path d="M137.571 15.0439V28.6965L149.968 36.1164V8.24228L137.571 15.0439ZM139.872 21.7898L144.584 19.1928V20.547L147.038 19.1928V24.8993L144.584 23.2793V24.8993L139.872 21.7898Z" fill="#81FFD9"/>
</g>
</g>
</g>
</g>
</g>
</g>
<defs>
<clipPath id="clip0_2_2">
<rect width="195" height="45" fill="white"/>
</clipPath>
<clipPath id="clip1_2_2">
<rect width="195" height="45" fill="white" transform="translate(-0.118164 -0.0702515)"/>
</clipPath>
<clipPath id="clip2_2_2">
<rect width="194.087" height="44.8595" fill="white" transform="translate(0.338196)"/>
</clipPath>
<clipPath id="clip3_2_2">
<rect width="194.087" height="44.8595" fill="white" transform="translate(0.338196)"/>
</clipPath>
<clipPath id="clip4_2_2">
<rect width="124.828" height="32.4598" fill="white" transform="translate(0.338196 10.3279)"/>
</clipPath>
<clipPath id="clip5_2_2">
<rect width="124.828" height="32.4598" fill="white" transform="translate(0.338196 10.3279)"/>
</clipPath>
<clipPath id="clip6_2_2">
<rect width="124.828" height="22.2303" fill="white" transform="translate(0.338196 10.3279)"/>
</clipPath>
<clipPath id="clip7_2_2">
<rect width="124.828" height="22.2303" fill="white" transform="translate(0.338196 10.3279)"/>
</clipPath>
<clipPath id="clip8_2_2">
<rect width="56.8548" height="44.8595" fill="white" transform="translate(137.571)"/>
</clipPath>
<clipPath id="clip9_2_2">
<rect width="56.8548" height="44.8595" fill="white" transform="translate(137.571)"/>
</clipPath>
</defs>
</svg>
