<svg width="27" height="27" viewBox="0 0 27 27" fill="none" xmlns="http://www.w3.org/2000/svg">
<g clip-path="url(#clip0_25_14)">
<path d="M23.625 27C24.5201 27 25.3785 26.6444 26.0115 26.0115C26.6444 25.3785 27 24.5201 27 23.625V3.375C27 2.47989 26.6444 1.62145 26.0115 0.988515C25.3785 0.355579 24.5201 0 23.625 0L3.375 0C2.47989 0 1.62145 0.355579 0.988515 0.988515C0.355579 1.62145 0 2.47989 0 3.375L0 23.625C0 24.5201 0.355579 25.3785 0.988515 26.0115C1.62145 26.6444 2.47989 27 3.375 27H23.625ZM9.963 8.76994L16.875 15.6819V11.0109C16.875 10.7872 16.9639 10.5725 17.1221 10.4143C17.2804 10.2561 17.495 10.1672 17.7188 10.1672C17.9425 10.1672 18.1571 10.2561 18.3154 10.4143C18.4736 10.5725 18.5625 10.7872 18.5625 11.0109V17.7188C18.5625 17.9425 18.4736 18.1571 18.3154 18.3154C18.1571 18.4736 17.9425 18.5625 17.7188 18.5625H11.0109C10.7872 18.5625 10.5725 18.4736 10.4143 18.3154C10.2561 18.1571 10.1672 17.9425 10.1672 17.7188C10.1672 17.495 10.2561 17.2804 10.4143 17.1221C10.5725 16.9639 10.7872 16.875 11.0109 16.875H15.6819L8.76994 9.963C8.61624 9.80387 8.5312 9.59073 8.53312 9.3695C8.53504 9.14828 8.62378 8.93665 8.78022 8.78022C8.93665 8.62378 9.14828 8.53504 9.3695 8.53312C9.59073 8.5312 9.80387 8.61624 9.963 8.76994Z" fill="#81FFD9"/>
</g>
<defs>
<clipPath id="clip0_25_14">
<rect width="27" height="27" fill="white"/>
</clipPath>
</defs>
</svg>
