<svg width="293" height="229" viewBox="0 0 293 229" fill="none" xmlns="http://www.w3.org/2000/svg">
<g clip-path="url(#clip0_1_95)">
<g clip-path="url(#clip1_1_95)">
<path d="M240.73 225.264L207.348 196.819L200.243 190.778L193.229 196.819L186.153 202.892L184.368 196.819L178.277 176.178L169.419 146.033L205.954 159.973L223.131 166.549L209.934 179.702L221.495 196.819L240.73 225.264Z" fill="#81FFD9"/>
<path d="M73.876 37.7591V190.526L147.453 228.285L176.691 210.299L162.226 169.884H92.0979V57.0477H200.004V146.065L218.226 153.019V37.7591L145.486 0L73.876 37.7591Z" fill="#81FFD9"/>
<path d="M171.222 110.47L132.859 135.64V89.4953L171.222 110.47Z" fill="#81FFD9"/>
<path d="M228.478 183.792L292.054 146.033V76.5565L228.478 41.944V183.792ZM256.089 126.713V118.469L243.503 126.713V97.6701L256.089 104.561V97.6701L280.255 110.886L256.089 126.713Z" fill="#81FFD9"/>
<path d="M0.491211 76.5565V146.033L64.068 183.792V41.944L0.491211 76.5565ZM12.2909 110.886L36.4567 97.6701V104.561L49.0431 97.6701V126.71L36.4567 118.466V126.71L12.2909 110.886Z" fill="#81FFD9"/>
</g>
</g>
<defs>
<clipPath id="clip0_1_95">
<rect width="291.563" height="228.285" fill="white" transform="translate(0.491211)"/>
</clipPath>
<clipPath id="clip1_1_95">
<rect width="291.563" height="228.285" fill="white" transform="translate(0.491211)"/>
</clipPath>
</defs>
</svg>
